<mxfile host="app.diagrams.net" modified="2023-10-09T08:45:05.552Z" agent="Mozilla/5.0 (Macintosh; Intel Mac OS X 10_15_7) AppleWebKit/537.36 (KHTML, like Gecko) Chrome/117.0.0.0 Safari/537.36" etag="rpq-DJnAIqjA1xsdTpjx" version="22.0.4" type="device">
  <diagram name="Page-1" id="yVLnmY7emJg5lU23g3tC">
    <mxGraphModel dx="821" dy="524" grid="1" gridSize="10" guides="1" tooltips="1" connect="1" arrows="1" fold="1" page="1" pageScale="1" pageWidth="827" pageHeight="1169" math="0" shadow="0">
      <root>
        <mxCell id="0" />
        <mxCell id="1" parent="0" />
        <mxCell id="CfEZIivymKLxwgHyoFTj-34" value="" style="rounded=1;whiteSpace=wrap;html=1;" vertex="1" parent="1">
          <mxGeometry x="15" y="170" width="530" height="650" as="geometry" />
        </mxCell>
        <mxCell id="CfEZIivymKLxwgHyoFTj-9" value="&lt;b style=&quot;border-color: var(--border-color);&quot;&gt;Utilisateur&lt;/b&gt;" style="rounded=1;whiteSpace=wrap;html=1;fillColor=#dae8fc;strokeColor=#6c8ebf;" vertex="1" parent="1">
          <mxGeometry x="60" y="260" width="120" height="60" as="geometry" />
        </mxCell>
        <mxCell id="CfEZIivymKLxwgHyoFTj-10" value="&lt;b style=&quot;border-color: var(--border-color);&quot;&gt;Panier&lt;/b&gt;" style="rounded=1;whiteSpace=wrap;html=1;fillColor=#d5e8d4;strokeColor=#82b366;" vertex="1" parent="1">
          <mxGeometry x="380" y="260" width="120" height="60" as="geometry" />
        </mxCell>
        <mxCell id="CfEZIivymKLxwgHyoFTj-11" value="" style="endArrow=none;html=1;rounded=0;entryX=0.5;entryY=1;entryDx=0;entryDy=0;" edge="1" parent="1" target="CfEZIivymKLxwgHyoFTj-9">
          <mxGeometry width="50" height="50" relative="1" as="geometry">
            <mxPoint x="120" y="760" as="sourcePoint" />
            <mxPoint x="130" y="360" as="targetPoint" />
          </mxGeometry>
        </mxCell>
        <mxCell id="CfEZIivymKLxwgHyoFTj-12" value="" style="endArrow=none;html=1;rounded=0;entryX=0.5;entryY=1;entryDx=0;entryDy=0;" edge="1" parent="1" target="CfEZIivymKLxwgHyoFTj-10">
          <mxGeometry width="50" height="50" relative="1" as="geometry">
            <mxPoint x="440" y="760" as="sourcePoint" />
            <mxPoint x="410" y="340" as="targetPoint" />
          </mxGeometry>
        </mxCell>
        <mxCell id="CfEZIivymKLxwgHyoFTj-13" value="" style="endArrow=classic;html=1;rounded=0;" edge="1" parent="1">
          <mxGeometry width="50" height="50" relative="1" as="geometry">
            <mxPoint x="120" y="405" as="sourcePoint" />
            <mxPoint x="440" y="405" as="targetPoint" />
          </mxGeometry>
        </mxCell>
        <mxCell id="CfEZIivymKLxwgHyoFTj-14" value="" style="endArrow=classic;html=1;rounded=0;" edge="1" parent="1">
          <mxGeometry width="50" height="50" relative="1" as="geometry">
            <mxPoint x="440" y="360" as="sourcePoint" />
            <mxPoint x="120" y="360" as="targetPoint" />
          </mxGeometry>
        </mxCell>
        <mxCell id="CfEZIivymKLxwgHyoFTj-15" value="&lt;font face=&quot;Verdana&quot; style=&quot;font-size: 10px;&quot;&gt;Choix du type de panier&lt;/font&gt;" style="text;html=1;strokeColor=none;fillColor=none;align=center;verticalAlign=middle;whiteSpace=wrap;rounded=0;" vertex="1" parent="1">
          <mxGeometry x="180" y="330" width="200" height="30" as="geometry" />
        </mxCell>
        <mxCell id="CfEZIivymKLxwgHyoFTj-16" value="&lt;font face=&quot;Verdana&quot;&gt;&lt;span style=&quot;font-size: 10px;&quot;&gt;Choix du mode &quot;Panier&quot;&lt;/span&gt;&lt;/font&gt;" style="text;html=1;strokeColor=none;fillColor=none;align=center;verticalAlign=middle;whiteSpace=wrap;rounded=0;" vertex="1" parent="1">
          <mxGeometry x="180" y="378" width="200" height="30" as="geometry" />
        </mxCell>
        <mxCell id="CfEZIivymKLxwgHyoFTj-18" value="" style="endArrow=classic;html=1;rounded=0;" edge="1" parent="1">
          <mxGeometry width="50" height="50" relative="1" as="geometry">
            <mxPoint x="120" y="450" as="sourcePoint" />
            <mxPoint x="440" y="450" as="targetPoint" />
          </mxGeometry>
        </mxCell>
        <mxCell id="CfEZIivymKLxwgHyoFTj-19" value="&lt;font face=&quot;Verdana&quot;&gt;&lt;span style=&quot;font-size: 10px;&quot;&gt;Ajout d&#39;un Fruit&lt;/span&gt;&lt;/font&gt;" style="text;html=1;strokeColor=none;fillColor=none;align=center;verticalAlign=middle;whiteSpace=wrap;rounded=0;" vertex="1" parent="1">
          <mxGeometry x="180" y="420" width="200" height="30" as="geometry" />
        </mxCell>
        <mxCell id="CfEZIivymKLxwgHyoFTj-21" value="" style="endArrow=classic;html=1;rounded=0;" edge="1" parent="1">
          <mxGeometry width="50" height="50" relative="1" as="geometry">
            <mxPoint x="120" y="533" as="sourcePoint" />
            <mxPoint x="440" y="533" as="targetPoint" />
          </mxGeometry>
        </mxCell>
        <mxCell id="CfEZIivymKLxwgHyoFTj-22" value="&lt;font face=&quot;Verdana&quot;&gt;&lt;span style=&quot;font-size: 10px;&quot;&gt;Modification d&#39;un Fruit&lt;/span&gt;&lt;/font&gt;" style="text;html=1;strokeColor=none;fillColor=none;align=center;verticalAlign=middle;whiteSpace=wrap;rounded=0;" vertex="1" parent="1">
          <mxGeometry x="180" y="504" width="200" height="30" as="geometry" />
        </mxCell>
        <mxCell id="CfEZIivymKLxwgHyoFTj-23" value="&lt;b&gt;&lt;font style=&quot;font-size: 15px;&quot;&gt;Application d&#39;une utilisation classique&lt;/font&gt;&lt;/b&gt;" style="text;html=1;strokeColor=none;fillColor=none;align=center;verticalAlign=middle;whiteSpace=wrap;rounded=0;" vertex="1" parent="1">
          <mxGeometry x="177.5" y="180" width="205" height="60" as="geometry" />
        </mxCell>
        <mxCell id="CfEZIivymKLxwgHyoFTj-24" value="" style="endArrow=classic;html=1;rounded=0;" edge="1" parent="1">
          <mxGeometry width="50" height="50" relative="1" as="geometry">
            <mxPoint x="440" y="490" as="sourcePoint" />
            <mxPoint x="120" y="490" as="targetPoint" />
          </mxGeometry>
        </mxCell>
        <mxCell id="CfEZIivymKLxwgHyoFTj-25" value="&lt;font face=&quot;Verdana&quot;&gt;&lt;span style=&quot;font-size: 10px;&quot;&gt;MàJ du Panier&lt;/span&gt;&lt;/font&gt;" style="text;html=1;strokeColor=none;fillColor=none;align=center;verticalAlign=middle;whiteSpace=wrap;rounded=0;" vertex="1" parent="1">
          <mxGeometry x="182.5" y="460" width="200" height="30" as="geometry" />
        </mxCell>
        <mxCell id="CfEZIivymKLxwgHyoFTj-26" value="" style="endArrow=classic;html=1;rounded=0;" edge="1" parent="1">
          <mxGeometry width="50" height="50" relative="1" as="geometry">
            <mxPoint x="440" y="580" as="sourcePoint" />
            <mxPoint x="120" y="580" as="targetPoint" />
          </mxGeometry>
        </mxCell>
        <mxCell id="CfEZIivymKLxwgHyoFTj-27" value="&lt;font face=&quot;Verdana&quot;&gt;&lt;span style=&quot;font-size: 10px;&quot;&gt;MàJ du Panier&lt;/span&gt;&lt;/font&gt;" style="text;html=1;strokeColor=none;fillColor=none;align=center;verticalAlign=middle;whiteSpace=wrap;rounded=0;" vertex="1" parent="1">
          <mxGeometry x="172.5" y="550" width="200" height="30" as="geometry" />
        </mxCell>
        <mxCell id="CfEZIivymKLxwgHyoFTj-28" value="" style="endArrow=classic;html=1;rounded=0;" edge="1" parent="1">
          <mxGeometry width="50" height="50" relative="1" as="geometry">
            <mxPoint x="120" y="631" as="sourcePoint" />
            <mxPoint x="440" y="631" as="targetPoint" />
          </mxGeometry>
        </mxCell>
        <mxCell id="CfEZIivymKLxwgHyoFTj-29" value="&lt;font face=&quot;Verdana&quot;&gt;&lt;span style=&quot;font-size: 10px;&quot;&gt;Suppression d&#39;un Fruit&lt;/span&gt;&lt;/font&gt;" style="text;html=1;strokeColor=none;fillColor=none;align=center;verticalAlign=middle;whiteSpace=wrap;rounded=0;" vertex="1" parent="1">
          <mxGeometry x="182.5" y="596" width="200" height="30" as="geometry" />
        </mxCell>
        <mxCell id="CfEZIivymKLxwgHyoFTj-30" value="" style="endArrow=classic;html=1;rounded=0;" edge="1" parent="1">
          <mxGeometry width="50" height="50" relative="1" as="geometry">
            <mxPoint x="440" y="681" as="sourcePoint" />
            <mxPoint x="120" y="681" as="targetPoint" />
          </mxGeometry>
        </mxCell>
        <mxCell id="CfEZIivymKLxwgHyoFTj-31" value="&lt;font face=&quot;Verdana&quot;&gt;&lt;span style=&quot;font-size: 10px;&quot;&gt;MàJ du Panier&lt;/span&gt;&lt;/font&gt;" style="text;html=1;strokeColor=none;fillColor=none;align=center;verticalAlign=middle;whiteSpace=wrap;rounded=0;" vertex="1" parent="1">
          <mxGeometry x="180" y="651" width="200" height="30" as="geometry" />
        </mxCell>
      </root>
    </mxGraphModel>
  </diagram>
</mxfile>
